<mxfile host="app.diagrams.net" agent="Mozilla/5.0 (Windows NT 10.0; Win64; x64) AppleWebKit/537.36 (KHTML, like Gecko) Chrome/134.0.0.0 Safari/537.36" version="26.1.1">
  <diagram name="Page-1" id="JdMs_tHAefReSa4vC3jY">
    <mxGraphModel dx="1434" dy="738" grid="1" gridSize="10" guides="1" tooltips="1" connect="1" arrows="1" fold="1" page="1" pageScale="1" pageWidth="850" pageHeight="1100" math="0" shadow="0">
      <root>
        <mxCell id="0" />
        <mxCell id="1" parent="0" />
        <mxCell id="U6mFiuP5VFxi1BR2G_bp-1" value="Ustanova" style="rounded=0;whiteSpace=wrap;html=1;" vertex="1" parent="1">
          <mxGeometry x="40" y="200" width="120" height="60" as="geometry" />
        </mxCell>
        <mxCell id="U6mFiuP5VFxi1BR2G_bp-7" value="Odjel" style="rounded=0;whiteSpace=wrap;html=1;" vertex="1" parent="1">
          <mxGeometry x="230" y="200" width="120" height="60" as="geometry" />
        </mxCell>
        <mxCell id="U6mFiuP5VFxi1BR2G_bp-13" value="Voditelj" style="whiteSpace=wrap;html=1;align=center;" vertex="1" parent="1">
          <mxGeometry x="400" y="210" width="100" height="40" as="geometry" />
        </mxCell>
        <mxCell id="U6mFiuP5VFxi1BR2G_bp-14" value="Nastavnik" style="whiteSpace=wrap;html=1;align=center;" vertex="1" parent="1">
          <mxGeometry x="180" y="360" width="100" height="40" as="geometry" />
        </mxCell>
        <mxCell id="U6mFiuP5VFxi1BR2G_bp-16" value="Program Obrazovanja" style="whiteSpace=wrap;html=1;align=center;" vertex="1" parent="1">
          <mxGeometry x="580" y="350" width="100" height="60" as="geometry" />
        </mxCell>
        <mxCell id="U6mFiuP5VFxi1BR2G_bp-17" value="Polazanik&lt;div&gt;&lt;br&gt;&lt;/div&gt;" style="whiteSpace=wrap;html=1;align=center;" vertex="1" parent="1">
          <mxGeometry x="580" y="550" width="100" height="40" as="geometry" />
        </mxCell>
        <mxCell id="U6mFiuP5VFxi1BR2G_bp-18" value="" style="edgeStyle=entityRelationEdgeStyle;fontSize=12;html=1;endArrow=ERone;endFill=1;rounded=0;exitX=1;exitY=0.5;exitDx=0;exitDy=0;entryX=0;entryY=0.5;entryDx=0;entryDy=0;" edge="1" parent="1" source="U6mFiuP5VFxi1BR2G_bp-7" target="U6mFiuP5VFxi1BR2G_bp-13">
          <mxGeometry width="100" height="100" relative="1" as="geometry">
            <mxPoint x="360" y="340" as="sourcePoint" />
            <mxPoint x="460" y="240" as="targetPoint" />
          </mxGeometry>
        </mxCell>
        <mxCell id="U6mFiuP5VFxi1BR2G_bp-20" value="" style="fontSize=12;html=1;endArrow=ERoneToMany;startArrow=ERzeroToMany;rounded=0;exitX=0.5;exitY=1;exitDx=0;exitDy=0;entryX=0.5;entryY=0;entryDx=0;entryDy=0;" edge="1" parent="1" source="U6mFiuP5VFxi1BR2G_bp-16" target="U6mFiuP5VFxi1BR2G_bp-17">
          <mxGeometry width="100" height="100" relative="1" as="geometry">
            <mxPoint x="620" y="440" as="sourcePoint" />
            <mxPoint x="720" y="340" as="targetPoint" />
          </mxGeometry>
        </mxCell>
        <mxCell id="U6mFiuP5VFxi1BR2G_bp-23" value="" style="edgeStyle=entityRelationEdgeStyle;fontSize=12;html=1;endArrow=ERoneToMany;rounded=0;entryX=0;entryY=0.5;entryDx=0;entryDy=0;" edge="1" parent="1" source="U6mFiuP5VFxi1BR2G_bp-29" target="U6mFiuP5VFxi1BR2G_bp-16">
          <mxGeometry width="100" height="100" relative="1" as="geometry">
            <mxPoint x="440" y="500" as="sourcePoint" />
            <mxPoint x="540" y="400" as="targetPoint" />
          </mxGeometry>
        </mxCell>
        <mxCell id="U6mFiuP5VFxi1BR2G_bp-25" style="edgeStyle=orthogonalEdgeStyle;rounded=0;orthogonalLoop=1;jettySize=auto;html=1;exitX=0.25;exitY=0;exitDx=0;exitDy=0;entryX=0;entryY=0;entryDx=0;entryDy=0;" edge="1" parent="1" source="U6mFiuP5VFxi1BR2G_bp-13" target="U6mFiuP5VFxi1BR2G_bp-13">
          <mxGeometry relative="1" as="geometry" />
        </mxCell>
        <mxCell id="U6mFiuP5VFxi1BR2G_bp-26" value="" style="edgeStyle=orthogonalEdgeStyle;fontSize=12;html=1;endArrow=ERoneToMany;rounded=0;exitX=1;exitY=0.5;exitDx=0;exitDy=0;entryX=0.25;entryY=0;entryDx=0;entryDy=0;" edge="1" parent="1" source="U6mFiuP5VFxi1BR2G_bp-13">
          <mxGeometry width="100" height="100" relative="1" as="geometry">
            <mxPoint x="540" y="230" as="sourcePoint" />
            <mxPoint x="645" y="350" as="targetPoint" />
          </mxGeometry>
        </mxCell>
        <mxCell id="U6mFiuP5VFxi1BR2G_bp-28" value="" style="fontSize=12;html=1;endArrow=ERmany;rounded=0;exitX=1;exitY=0.5;exitDx=0;exitDy=0;entryX=0;entryY=0.5;entryDx=0;entryDy=0;" edge="1" parent="1" source="U6mFiuP5VFxi1BR2G_bp-1" target="U6mFiuP5VFxi1BR2G_bp-7">
          <mxGeometry width="100" height="100" relative="1" as="geometry">
            <mxPoint x="340" y="270" as="sourcePoint" />
            <mxPoint x="400" y="340" as="targetPoint" />
          </mxGeometry>
        </mxCell>
        <mxCell id="U6mFiuP5VFxi1BR2G_bp-31" value="Predaje" style="shape=rhombus;perimeter=rhombusPerimeter;whiteSpace=wrap;html=1;align=center;" vertex="1" parent="1">
          <mxGeometry x="600" y="200" width="90" height="60" as="geometry" />
        </mxCell>
        <mxCell id="U6mFiuP5VFxi1BR2G_bp-32" value="" style="edgeStyle=entityRelationEdgeStyle;fontSize=12;html=1;endArrow=ERoneToMany;rounded=0;" edge="1" parent="1" source="U6mFiuP5VFxi1BR2G_bp-14" target="U6mFiuP5VFxi1BR2G_bp-16">
          <mxGeometry width="100" height="100" relative="1" as="geometry">
            <mxPoint x="330" y="330" as="sourcePoint" />
            <mxPoint x="555" y="330" as="targetPoint" />
          </mxGeometry>
        </mxCell>
        <mxCell id="U6mFiuP5VFxi1BR2G_bp-29" value="Predaje" style="shape=rhombus;perimeter=rhombusPerimeter;whiteSpace=wrap;html=1;align=center;" vertex="1" parent="1">
          <mxGeometry x="370" y="350" width="110" height="60" as="geometry" />
        </mxCell>
        <mxCell id="U6mFiuP5VFxi1BR2G_bp-35" value="" style="fontSize=12;html=1;endArrow=ERmany;rounded=0;exitX=0;exitY=1;exitDx=0;exitDy=0;" edge="1" parent="1" source="U6mFiuP5VFxi1BR2G_bp-7" target="U6mFiuP5VFxi1BR2G_bp-14">
          <mxGeometry width="100" height="100" relative="1" as="geometry">
            <mxPoint x="230" y="260" as="sourcePoint" />
            <mxPoint x="232" y="362" as="targetPoint" />
          </mxGeometry>
        </mxCell>
        <mxCell id="U6mFiuP5VFxi1BR2G_bp-33" value="ZapoÅ¡ljava" style="shape=rhombus;perimeter=rhombusPerimeter;whiteSpace=wrap;html=1;align=center;" vertex="1" parent="1">
          <mxGeometry x="185" y="280" width="90" height="60" as="geometry" />
        </mxCell>
        <mxCell id="U6mFiuP5VFxi1BR2G_bp-37" value="Upisan/Upisati" style="shape=rhombus;perimeter=rhombusPerimeter;whiteSpace=wrap;html=1;align=center;" vertex="1" parent="1">
          <mxGeometry x="570" y="450" width="120" height="60" as="geometry" />
        </mxCell>
      </root>
    </mxGraphModel>
  </diagram>
</mxfile>
